<svg width="130" height="39" viewBox="0 0 130 39" fill="none" xmlns="http://www.w3.org/2000/svg">
<path fill-rule="evenodd" clip-rule="evenodd" d="M129.48 0H0V39H129.48V0ZM31.2411 7.39158C31.2411 6.10882 30.8371 5.08395 30.0288 4.31693H36.9703C36.1751 5.01782 35.5298 5.99643 35.0345 7.25273C34.865 7.6759 34.6956 8.13214 34.526 8.62144C34.3567 9.11074 34.1611 9.80502 33.9395 10.7043L33.2355 13.7987C32.9619 14.989 32.6816 16.2849 32.3948 17.6866C30.8957 24.96 30.0483 29.0266 29.8529 29.8861C29.6703 30.7324 29.5791 31.5457 29.5791 32.326C29.5791 33.093 29.7485 33.8798 30.0874 34.6864L23.2438 34.6667C23.5567 34.1774 23.7392 33.7212 23.7912 33.298C23.8565 32.8616 23.8891 32.3326 23.8891 31.7111C23.8891 31.0895 23.7848 30.1638 23.5762 28.9339C23.3677 27.7041 23.0939 26.3022 22.755 24.7286L20.2716 14.017C18.2902 22.8772 17.1626 27.9488 16.8889 29.2314C16.6282 30.5142 16.4979 31.5391 16.4979 32.3061C16.4979 33.0731 16.6607 33.8666 16.9867 34.6864L10.143 34.6667C10.5732 33.9657 10.7883 33.0269 10.7883 31.8499C10.7883 29.8927 9.92791 25.3435 8.20722 18.2024C6.42134 10.7175 4.90269 6.08898 3.65127 4.31693H10.5927C10.3581 4.89881 10.2408 5.5997 10.2408 6.41959C10.2408 7.22628 10.3059 8.1123 10.4363 9.07768C10.5797 10.0431 10.7622 11.1341 10.9838 12.3507C11.2184 13.5673 11.4791 14.87 11.7659 16.2584L14.4251 28.1206C14.6598 27.1024 14.9076 25.9651 15.1682 24.7088C15.8983 21.1117 16.3935 18.5926 16.6543 17.1511L17.3191 13.3623C17.7102 11.0349 17.9058 9.46118 17.9058 8.64128C17.9058 7.82137 17.8536 7.03453 17.7493 6.28075C17.658 5.52696 17.4104 4.87236 17.0062 4.31693H24.3193C23.7717 5.36166 23.4979 6.55845 23.4979 7.90733C23.4979 8.91238 23.8108 10.9489 24.4365 14.017L26.7048 24.7882L27.526 28.3785L29.1685 20.444C29.4422 19.0157 29.703 17.6073 29.9506 16.2189L30.6153 12.3705C31.0325 9.84468 31.2411 8.18504 31.2411 7.39158ZM50.1899 34.6667C50.3594 33.8336 50.4441 33.1723 50.4441 32.6831C50.4441 32.1805 50.4311 31.8035 50.405 31.5524C50.392 31.301 50.3658 31.0366 50.3267 30.7589C50.3007 30.4679 50.2616 30.1505 50.2095 29.8067C50.1704 29.4497 50.1313 29.0397 50.0922 28.5768C49.7924 25.4162 48.73 22.8177 46.905 20.7812C46.0968 19.8819 45.2234 19.2009 44.2848 18.738C43.3463 18.2619 42.5706 18.024 41.9579 18.024C41.3583 18.024 40.8955 18.0636 40.5697 18.143C39.8397 20.3646 39.4747 22.6854 39.4747 25.1056C39.4747 27.2479 39.5855 28.8479 39.8071 29.906C40.1591 31.4928 40.7 33.0863 41.43 34.6864H35.5835C35.8964 33.893 36.0528 32.2267 36.0528 29.6877C36.0528 27.1355 36.2419 24.7551 36.6199 22.5466C36.9979 20.325 37.4867 18.3479 38.0863 16.6155C38.699 14.8831 39.3769 13.369 40.12 12.073C40.876 10.7638 41.6255 9.62649 42.3685 8.66111C43.1246 7.68251 43.8351 6.84939 44.4999 6.16173C45.1648 5.46084 45.7187 4.84591 46.1619 4.31693H52.3213C51.7608 4.96493 51.4804 5.87079 51.4804 7.03453C51.4804 7.56349 51.5652 8.42969 51.7346 9.63309L52.2234 13.2433C53.8783 24.8115 55.371 31.7921 56.7013 34.1848C56.4842 34.3398 56.2435 34.5004 55.9793 34.6667H50.1899ZM56.7013 34.1848C57.33 33.7359 57.7607 33.3344 57.9933 32.9806C58.5929 32.0813 58.8927 30.9175 58.8927 29.4894C58.8798 25.9717 58.8732 22.7847 58.8732 19.9282V9.51408C58.8732 7.54365 58.5669 6.11544 57.9542 5.22941C57.7195 4.91202 57.4393 4.60786 57.1134 4.31693H71.8175C72.704 4.63432 73.3101 5.74516 73.6361 7.64946C73.7272 8.17842 73.7729 8.69417 73.7729 9.1967C73.7729 10.2282 73.623 11.0481 73.3232 11.6564L72.2673 9.51408C71.5633 8.1123 70.5531 7.17339 69.2366 6.6973C68.5065 6.43282 67.6852 6.30057 66.7728 6.30057C65.8603 6.30057 65.2085 6.33364 64.8174 6.39976C64.4263 6.45266 64.1265 6.59151 63.918 6.81632C63.5791 7.19983 63.4096 7.93378 63.4096 9.01817C63.4096 10.0893 63.4357 10.8365 63.4878 11.2597C63.54 11.6696 63.6639 12.0069 63.8593 12.2713C64.2635 12.7871 65.1172 13.045 66.4208 13.045H72.5606C72.2608 13.812 71.9544 14.3542 71.6415 14.6716C71.0159 15.3063 70.1685 15.6237 69.0996 15.6237C68.6825 15.6237 68.285 15.5774 67.9069 15.4849C67.2029 15.3129 66.5837 15.2269 66.0493 15.2269C65.5149 15.2269 65.0716 15.2799 64.7197 15.3856C64.3808 15.4783 64.1136 15.6303 63.918 15.8419C63.5791 16.2122 63.4096 16.88 63.4096 17.8453V21.9516C63.4096 26.1568 63.4552 28.7488 63.5465 29.7273C63.6508 30.6927 63.7485 31.387 63.8398 31.8102C63.931 32.2334 64.0679 32.6102 64.2504 32.9409C64.5371 33.4831 65.0847 34.0584 65.8929 34.6667H57.014C56.9108 34.5348 56.8065 34.3741 56.7013 34.1848ZM41.3714 16.0402C41.8797 15.8419 42.4142 15.7427 42.9747 15.7427C43.5353 15.7427 44.0371 15.7824 44.4804 15.8618C44.9366 15.9411 45.3863 16.0733 45.8295 16.2584C46.7811 16.6288 47.5763 17.2173 48.215 18.024C47.5763 14.6253 47.1852 12.549 47.0418 11.7953L46.3574 8.3239L45.243 9.67277C43.6787 11.5771 42.3881 13.6996 41.3714 16.0402ZM80.5399 21.9516V17.8453C80.5399 16.88 80.7094 16.2122 81.0483 15.8419C81.2439 15.6303 81.5111 15.4783 81.85 15.3856C82.2019 15.2799 82.6452 15.2269 83.1797 15.2269C83.7142 15.2269 84.3333 15.3129 85.0373 15.4849C85.4153 15.5774 85.8128 15.6237 86.2299 15.6237C87.2989 15.6237 88.1462 15.3063 88.7719 14.6716C89.0848 14.3542 89.3911 13.812 89.6909 13.045H83.5512C82.2476 13.045 81.3938 12.7871 80.9896 12.2713C80.7942 12.0069 80.6703 11.6696 80.6181 11.2597C80.5661 10.8365 80.5399 10.0893 80.5399 9.01817C80.5399 7.93378 80.7094 7.19983 81.0483 6.81632C81.2568 6.59151 81.5566 6.45266 81.9478 6.39976C82.3389 6.33364 82.9907 6.30057 83.9032 6.30057C84.8155 6.30057 85.6369 6.43282 86.3669 6.6973C87.6835 7.17339 88.6937 8.1123 89.3977 9.51408L90.4535 11.6564C90.7533 11.0481 90.9032 10.2282 90.9032 9.1967C90.9032 8.69417 90.8576 8.17842 90.7664 7.64946C90.4404 5.74516 89.8343 4.63432 88.948 4.31693H74.2437C74.5697 4.60786 74.8498 4.91202 75.0845 5.22941C75.6972 6.11544 76.0036 7.54365 76.0036 9.51408V19.9282C76.0036 22.7847 76.0101 25.9717 76.023 29.4894C76.023 30.9175 75.7232 32.0813 75.1236 32.9806C74.8107 33.4566 74.1395 34.0187 73.1096 34.6667H83.0232C82.215 34.0584 81.6674 33.4831 81.3807 32.9409C81.1982 32.6102 81.0613 32.2334 80.9701 31.8102C80.8788 31.387 80.7811 30.6927 80.6768 29.7273C80.5855 28.7488 80.5399 26.1568 80.5399 21.9516ZM107.486 27.3272C107.838 27.8429 108.014 28.4644 108.014 29.1918C108.014 29.9191 107.962 30.5473 107.858 31.0762C107.766 31.6053 107.636 32.1078 107.467 32.5838C107.075 33.6286 106.58 34.3228 105.98 34.6667H90.2596C91.2894 34.0187 91.9607 33.4566 92.2736 32.9806C92.8732 32.0813 93.173 30.9175 93.173 29.4894C93.1599 25.9717 93.1534 22.7913 93.1534 19.9481V9.55375C93.1534 7.63623 92.8406 6.22784 92.2149 5.32859C91.9933 4.99799 91.7195 4.66077 91.3937 4.31693H99.4301C98.6609 5.441 98.2243 6.59812 98.1199 7.78831C98.0939 8.18504 98.0808 8.62144 98.0808 9.09751V27.2676C98.0808 29.7406 98.2113 31.2218 98.4719 31.7111C98.7326 32.187 99.0455 32.4714 99.4105 32.564C99.7756 32.6434 100.33 32.6831 101.073 32.6831C101.816 32.6831 102.519 32.5508 103.184 32.2863C103.849 32.0218 104.442 31.6515 104.964 31.1755C105.85 30.3555 106.691 29.0727 107.486 27.3272ZM124.225 29.4497C124.225 28.524 124.049 27.8165 123.697 27.3272C123.385 28.1074 123.065 28.8282 122.739 29.4894C122.413 30.1374 121.996 30.6994 121.488 31.1755C120.993 31.6515 120.373 32.0218 119.63 32.2863C118.887 32.5508 118.059 32.6831 117.147 32.6831C116.234 32.6831 115.583 32.6434 115.192 32.564C114.801 32.4714 114.468 32.1937 114.194 31.7308C113.921 31.268 113.784 29.7936 113.784 27.3073V17.8453C113.784 16.88 113.953 16.2122 114.292 15.8419C114.488 15.6303 114.755 15.4783 115.094 15.3856C115.446 15.2799 115.889 15.2269 116.424 15.2269C116.958 15.2269 117.577 15.3129 118.281 15.4849C118.659 15.5774 119.057 15.6237 119.474 15.6237C120.543 15.6237 121.39 15.3063 122.016 14.6716C122.329 14.3542 122.635 13.812 122.935 13.045H116.795C115.491 13.045 114.638 12.7871 114.234 12.2713C114.038 12.0069 113.914 11.6696 113.862 11.2597C113.81 10.8365 113.784 10.0893 113.784 9.01817C113.784 7.93378 113.953 7.19983 114.292 6.81632C114.501 6.59151 114.801 6.45266 115.192 6.39976C115.583 6.33364 116.234 6.30057 117.147 6.30057C118.059 6.30057 118.881 6.43282 119.611 6.6973C120.927 7.17339 121.938 8.1123 122.642 9.51408L123.697 11.6564C123.997 11.0481 124.147 10.2282 124.147 9.1967C124.147 8.69417 124.102 8.17842 124.01 7.64946C123.684 5.74516 123.078 4.63432 122.192 4.31693H107.488C107.814 4.60786 108.094 4.91202 108.328 5.22941C108.941 6.11544 109.247 7.54365 109.247 9.51408V19.9481C109.247 22.8044 109.254 25.9981 109.267 29.5291C109.267 30.9705 108.961 32.1606 108.348 33.0996C108.022 33.6022 107.357 34.1245 106.354 34.6667H122.192C122.831 34.6667 123.345 34.1641 123.737 33.1591C123.906 32.7095 124.03 32.2136 124.108 31.6714C124.186 31.1159 124.225 30.3754 124.225 29.4497Z" fill="#1C1C19"/>
</svg>
